<?xml version="1.0" encoding="UTF-8" standalone="no"?>
<!-- Generator: Adobe Illustrator 16.0.0, SVG Export Plug-In . SVG Version: 6.00 Build 0)  -->

<svg
   xmlns:dc="http://purl.org/dc/elements/1.1/"
   xmlns:cc="http://creativecommons.org/ns#"
   xmlns:rdf="http://www.w3.org/1999/02/22-rdf-syntax-ns#"
   xmlns:svg="http://www.w3.org/2000/svg"
   xmlns="http://www.w3.org/2000/svg"
   xmlns:sodipodi="http://sodipodi.sourceforge.net/DTD/sodipodi-0.dtd"
   xmlns:inkscape="http://www.inkscape.org/namespaces/inkscape"
   version="1.1"
   x="0px"
   y="0px"
   width="1280px"
   height="1280px"
   viewBox="0 0 1280 1280"
   enable-background="new 0 0 1280 1280"
   xml:space="preserve"
   id="svg40"
   sodipodi:docname="AndroidPcscLikeBackground.svg"
   inkscape:version="0.92.3 (2405546, 2018-03-11)"><metadata
   id="metadata46"><rdf:RDF><cc:Work
       rdf:about=""><dc:format>image/svg+xml</dc:format><dc:type
         rdf:resource="http://purl.org/dc/dcmitype/StillImage" /></cc:Work></rdf:RDF></metadata><defs
   id="defs44" /><sodipodi:namedview
   pagecolor="#ffffff"
   bordercolor="#666666"
   borderopacity="1"
   objecttolerance="10"
   gridtolerance="10"
   guidetolerance="10"
   inkscape:pageopacity="0"
   inkscape:pageshadow="2"
   inkscape:window-width="1920"
   inkscape:window-height="1017"
   id="namedview42"
   showgrid="false"
   inkscape:zoom="0.184375"
   inkscape:cx="640"
   inkscape:cy="640"
   inkscape:window-x="-8"
   inkscape:window-y="-8"
   inkscape:window-maximized="1"
   inkscape:current-layer="svg40" />
<g
   id="Layer_1"
   display="none">
	<path
   display="inline"
   fill="#EC1C24"
   d="M335.188,326.93v724.475c0,76.758,283.562,78.965,315.863,78.965   s315.862-2.207,315.862-78.965V326.93c-52.708,35.337-158.124,53.267-315.862,53.267   C493.312,380.197,387.935,362.267,335.188,326.93L335.188,326.93z M335.188,326.93"
   id="path2" />
	<path
   display="inline"
   fill="#EC1C24"
   d="M651.051,340.714c194.851,0,315.862-30.287,315.862-78.966   c0-2.998-0.752-5.765-1.976-8.289c-18.007-61.164-229.398-69.454-296.315-70.524c-5.841-0.038-11.565-0.153-17.571-0.153   c-6.007,0-11.731,0.116-17.613,0.153c-66.925,1.07-278.306,9.322-296.313,70.524c-1.184,2.523-1.938,5.291-1.938,8.289   C335.188,310.428,456.201,340.714,651.051,340.714L651.051,340.714z M651.051,340.714"
   id="path4" />
</g>
<g
   id="Layer_4">
	<linearGradient
   id="SVGID_1_"
   gradientUnits="userSpaceOnUse"
   x1="-0.4995"
   y1="1280.5"
   x2="1279.5005"
   y2="0.5">
		<stop
   offset="0"
   style="stop-color:#990714"
   id="stop7" />
		<stop
   offset="0.2607"
   style="stop-color:#B12B37"
   id="stop9" />
		<stop
   offset="0.7629"
   style="stop-color:#DB6C75"
   id="stop11" />
		<stop
   offset="1"
   style="stop-color:#EC858E"
   id="stop13" />
	</linearGradient>
	<rect
   x="-0.5"
   y="0.5"
   fill="url(#SVGID_1_)"
   stroke="#E35360"
   stroke-miterlimit="10"
   width="1280"
   height="1280"
   id="rect16" />
</g>

<g
   id="Layer_6"
   display="none">
	<g
   display="inline"
   id="g32">
		<path
   fill="#FFFFFF"
   d="M1030.746,820.628l-87.593-87.59h-15.366v116.789l-70.685-70.689l-21.516,21.512l86.054,86.057    l-86.054,86.054l21.516,21.51l70.685-70.688v116.789h15.366l87.593-87.59l-66.076-66.075L1030.746,820.628z M958.521,791.433    l29.196,29.195l-29.196,29.199V791.433z M987.718,952.781l-29.196,29.197v-58.396L987.718,952.781z M987.718,952.781"
   id="path30" />
	</g>
</g>

</svg>